<svg xmlns="http://www.w3.org/2000/svg"  viewBox="0 0 50 50" width="50px" height="50px"><path d="M 36 3 L 38.199219 5.1992188 L 34.400391 9 C 25.000391 3.2 12.600391 6.0996094 6.9003906 15.599609 C 1.2003906 25.099609 4.1 37.399219 13.5 43.199219 C 22.9 48.999219 35.299609 45.999609 41.099609 36.599609 C 45.299609 29.699609 45.000781 21 40.300781 14.5 L 43.900391 10.900391 L 46 13 L 46 3 L 36 3 z M 24 12 C 31.7 12 38 18.3 38 26 C 38 33.7 31.7 40 24 40 C 16.3 40 10 33.7 10 26 C 10 18.3 16.3 12 24 12 z M 12.800781 20.900391 C 12.700781 21.100391 12.699609 21.3 12.599609 21.5 C 12.499609 21.7 12.500391 21.899609 12.400391 22.099609 C 12.300391 22.299609 12.299219 22.500781 12.199219 22.800781 C 12.199219 23.000781 12.099609 23.200391 12.099609 23.400391 C 12.099609 23.600391 12 23.8 12 24 C 11.8 25.3 11.8 26.600391 12 27.900391 C 12 28.100391 12.099609 28.3 12.099609 28.5 C 12.099609 28.7 12.199219 28.899609 12.199219 29.099609 C 12.299219 29.299609 12.300391 29.500781 12.400391 29.800781 C 12.400391 30.000781 12.499609 30.200391 12.599609 30.400391 C 12.699609 30.600391 12.700781 30.8 12.800781 31 L 35.199219 31 C 35.299219 30.8 35.300391 30.600391 35.400391 30.400391 C 35.500391 30.200391 35.499609 30.000781 35.599609 29.800781 C 35.699609 29.600781 35.700781 29.399609 35.800781 29.099609 C 35.800781 28.899609 35.900391 28.7 35.900391 28.5 C 35.900391 28.3 36 28.100391 36 27.900391 C 36.1 27.300391 36.099609 26.600391 36.099609 25.900391 C 35.999609 25.300391 36.000391 24.7 35.900391 24 C 35.900391 23.8 35.800781 23.600391 35.800781 23.400391 C 35.800781 23.200391 35.699219 23.000781 35.699219 22.800781 C 35.599219 22.600781 35.6 22.399609 35.5 22.099609 C 35.5 21.899609 35.400781 21.7 35.300781 21.5 C 35.200781 21.3 35.199609 21.100391 35.099609 20.900391 L 12.800781 20.900391 z M 13 24 L 15.900391 24 L 15.900391 24.599609 L 15.199219 24.599609 L 16.099609 27 L 17 24.599609 L 16.400391 24.599609 L 16.400391 24 L 18.400391 24 L 18.400391 24.599609 L 17.800781 24.599609 L 16.599609 28 L 15 28 L 13.599609 24.699219 L 13 24.699219 L 13 24 z M 20.300781 24 L 20.599609 24 C 21.599609 24.1 22.400781 25 22.300781 26 L 22.300781 26.199219 C 22.300781 27.199219 21.400391 28 20.400391 28 L 19.900391 28 C 18.900391 27.9 18.200781 27 18.300781 26 L 18.300781 25.900391 C 18.300781 24.800391 19.200781 24 20.300781 24 z M 22.5 24 L 25.199219 24 L 25.199219 24.599609 L 24.5 24.599609 L 24.5 27.300781 L 25.199219 27.300781 C 25.699219 27.300781 26.099609 26.699609 26.099609 26.099609 L 26.599609 26.099609 L 26.599609 28 L 26.5 28 L 22.5 28 L 22.5 27.300781 L 23.199219 27.300781 L 23.199219 24.599609 L 22.5 24.599609 L 22.5 24 z M 25.699219 24 L 28.599609 24 L 28.599609 24.599609 L 28 24.599609 L 28.900391 27 L 29.800781 24.599609 L 29.199219 24.599609 L 29.199219 24 L 31.199219 24 L 31.199219 24.599609 L 30.599609 24.599609 L 29.300781 28 L 27.699219 28 L 26.300781 24.699219 L 25.699219 24.699219 L 25.699219 24 z M 33 24 L 33.300781 24 C 34.300781 24.1 35.1 25 35 26 L 35 26.199219 C 35 27.199219 34.099609 28 33.099609 28 L 32.599609 28 C 31.599609 27.9 30.9 27 31 26 L 31 25.900391 C 31 24.800391 31.9 24 33 24 z M 20.300781 24.5 C 19.900781 24.5 19.599609 25.100391 19.599609 25.900391 C 19.599609 26.700391 19.900781 27.300781 20.300781 27.300781 C 20.700781 27.300781 21 26.700391 21 25.900391 C 21 25.100391 20.700781 24.5 20.300781 24.5 z M 33 24.5 C 32.6 24.5 32.300781 25.100391 32.300781 25.900391 C 32.300781 26.700391 32.6 27.300781 33 27.300781 C 33.4 27.300781 33.699219 26.700391 33.699219 25.900391 C 33.699219 25.100391 33.4 24.5 33 24.5 z"/></svg>